<svg xmlns="http://www.w3.org/2000/svg" width="72" height="72" viewBox="0 0 72 72">
  <g id="Group_9737" data-name="Group 9737" transform="translate(0.271 0.051)">
    <rect id="Rectangle_1537" data-name="Rectangle 1537" width="72" height="72" rx="20" transform="translate(-0.271 -0.051)" fill="none"/>
    <g id="_035-apple-watch" data-name="035-apple-watch" transform="translate(-75.646 17.141)">
      <path id="Path_20416" data-name="Path 20416" d="M154.762,7.441c-13.159.068-12.82-.153-13.956.2h-.033a3.145,3.145,0,0,0,2.189-2.361l.28-4.179a.751.751,0,0,1,.577-.625A25.122,25.122,0,0,1,153.084.39a.6.6,0,0,1,.477.5l.3,4.355A3.1,3.1,0,0,0,155.928,7.6,4.456,4.456,0,0,0,154.762,7.441Z" transform="translate(-38.104 0)" fill="#377dff"/>
      <path id="Path_20417" data-name="Path 20417" d="M146.356,1.586l-.28,4.671A3.63,3.63,0,0,1,144.8,8.408c-2.317.045-2.963-.12-3.993.2h-.033a3.145,3.145,0,0,0,2.189-2.361c.075-1.1.272-4.135.289-4.22a.747.747,0,0,1,.57-.585,19.315,19.315,0,0,1,2.815-.395A.886.886,0,0,0,146.356,1.586Z" transform="translate(-38.104 -0.967)" fill="#286be5"/>
      <g id="Group_9741" data-name="Group 9741" transform="translate(121.048 13.431)">
        <path id="Path_20418" data-name="Path 20418" d="M385.2,177.735h-.239a.958.958,0,0,0-.955.955v1.433a.958.958,0,0,0,.955.955h.239a.958.958,0,0,0,.955-.955V178.69A.958.958,0,0,0,385.2,177.735Z" transform="translate(-384.007 -177.735)" fill="#ccc"/>
        <path id="Path_20419" data-name="Path 20419" d="M385.2,266.926h-.239a.958.958,0,0,0-.955.955v3.688a.958.958,0,0,0,.955.955h.239a.958.958,0,0,0,.955-.955v-3.688A.958.958,0,0,0,385.2,266.926Z" transform="translate(-384.007 -260.186)" fill="#ccc"/>
      </g>
      <path id="Path_20420" data-name="Path 20420" d="M385.2,295.527h-.239a.958.958,0,0,1-.955-.955v2.554a.958.958,0,0,0,.955.955h.239a.958.958,0,0,0,.955-.955v-2.554A.958.958,0,0,1,385.2,295.527Z" transform="translate(-262.959 -272.313)" fill="#bababa"/>
      <path id="Path_20421" data-name="Path 20421" d="M142.126,411.105a4.453,4.453,0,0,1-1.32-.2h-.033a3.145,3.145,0,0,1,2.189,2.361c.075,1.1.272,4.136.289,4.22a.747.747,0,0,0,.57.585,25.158,25.158,0,0,0,9.264.084.6.6,0,0,0,.477-.5l.3-4.355a3.1,3.1,0,0,1,2.063-2.348C154.908,411.226,155.374,411.051,142.126,411.105Z" transform="translate(-38.105 -379.856)" fill="#377dff"/>
      <path id="Path_20422" data-name="Path 20422" d="M146.356,417.925l-.28-4.671A3.63,3.63,0,0,0,144.8,411.1c-2.317-.045-2.963.12-3.993-.2h-.033a3.145,3.145,0,0,1,2.189,2.361l.28,4.179a.751.751,0,0,0,.577.625,19.3,19.3,0,0,0,2.817.4A.885.885,0,0,1,146.356,417.925Z" transform="translate(-38.104 -379.855)" fill="#286be5"/>
      <path id="Path_20423" data-name="Path 20423" d="M116.658,120.528H104.021a4.473,4.473,0,0,1-4.468-4.468V100.876a4.473,4.473,0,0,1,4.468-4.468h12.637a4.473,4.473,0,0,1,4.468,4.468V116.06A4.473,4.473,0,0,1,116.658,120.528Z" transform="translate(0 -89.123)" fill="#efefef"/>
      <path id="Path_20424" data-name="Path 20424" d="M101.7,116.061V100.877a4.473,4.473,0,0,1,4.468-4.468h-2.149a4.473,4.473,0,0,0-4.468,4.468v15.184a4.473,4.473,0,0,0,4.468,4.468h2.149A4.473,4.473,0,0,1,101.7,116.061Z" transform="translate(-0.001 -89.124)" fill="#ddd"/>
      <path id="Path_20425" data-name="Path 20425" d="M130.316,124.852A2.321,2.321,0,0,0,128,127.171v15.184a2.321,2.321,0,0,0,2.319,2.319h12.637a2.321,2.321,0,0,0,2.319-2.319V127.171a2.321,2.321,0,0,0-2.319-2.319Z" transform="translate(-26.295 -115.417)" fill="#ccc"/>
      <path id="Path_20426" data-name="Path 20426" d="M130.324,142.354V127.171a2.321,2.321,0,0,1,2.319-2.319h-2.327A2.321,2.321,0,0,0,128,127.171v15.184a2.321,2.321,0,0,0,2.319,2.319h2.327A2.321,2.321,0,0,1,130.324,142.354Z" transform="translate(-26.295 -115.417)" fill="#bababa"/>
      <g id="Group_9742" data-name="Group 9742" transform="translate(103.578 11.291)">
        <path id="Path_20427" data-name="Path 20427" d="M187.4,352.708h-8.5a.584.584,0,1,1,0-1.168h8.5a.584.584,0,1,1,0,1.168Z" transform="translate(-176.388 -336.267)" fill="#efefef"/>
        <circle id="Ellipse_572" data-name="Ellipse 572" cx="1.07" cy="1.07" r="1.07" fill="#efefef"/>
      </g>
      <path id="Path_20428" data-name="Path 20428" d="M153.885,150.5a1.069,1.069,0,0,1,0-1.069,1.07,1.07,0,1,0,.926,1.6A1.068,1.068,0,0,1,153.885,150.5Z" transform="translate(-49.237 -138.138)" fill="#ddd"/>
      <circle id="Ellipse_573" data-name="Ellipse 573" cx="5.917" cy="5.917" r="5.917" transform="translate(104.394 13.382)" fill="#898989"/>
      <path id="Path_20429" data-name="Path 20429" d="M166.419,188.585a5.919,5.919,0,0,1,1.212-7.4,5.917,5.917,0,1,0,5.8,10.048A5.919,5.919,0,0,1,166.419,188.585Z" transform="translate(-59.209 -167.494)" fill="#777"/>
      <g id="Group_9743" data-name="Group 9743" transform="translate(109.65 15.743)">
        <path id="Path_20430" data-name="Path 20430" d="M233.757,212.522a.584.584,0,0,1-.584-.584V208.92a.584.584,0,1,1,1.168,0v3.018A.584.584,0,0,1,233.757,212.522Z" transform="translate(-233.173 -208.336)" fill="#535454"/>
        <path id="Path_20431" data-name="Path 20431" d="M236.5,254.487a.581.581,0,0,1-.385-.145l-2.743-2.409a.584.584,0,1,1,.771-.877l2.743,2.409a.584.584,0,0,1-.386,1.023Z" transform="translate(-233.174 -247.694)" fill="#535454"/>
      </g>
      <circle id="Ellipse_574" data-name="Ellipse 574" cx="1.07" cy="1.07" r="1.07" transform="translate(114.905 11.291)" fill="#efefef"/>
      <path id="Path_20432" data-name="Path 20432" d="M303.78,150.5a1.069,1.069,0,0,1,0-1.069,1.07,1.07,0,1,0,.926,1.6A1.068,1.068,0,0,1,303.78,150.5Z" transform="translate(-187.804 -138.138)" fill="#ddd"/>
      <circle id="Ellipse_575" data-name="Ellipse 575" cx="1.07" cy="1.07" r="1.07" transform="translate(109.197 18.276)" fill="#efefef"/>
      <path id="Path_20433" data-name="Path 20433" d="M228.224,241.861a1.07,1.07,0,1,0,.926,1.6A1.068,1.068,0,0,1,228.224,241.861Z" transform="translate(-117.957 -223.585)" fill="#ddd"/>
    </g>
  </g>
</svg>
