<svg xmlns="http://www.w3.org/2000/svg" width="72" height="72" viewBox="0 0 72 72">
  <g id="Group_4063" data-name="Group 4063" transform="translate(0.271 0.051)">
    <rect id="Rectangle_1537" data-name="Rectangle 1537" width="72" height="72" rx="20" transform="translate(-0.271 -0.051)" fill="none"/>
    <g id="_041-apple-tv" data-name="041-apple-tv" transform="translate(15.248 2.946)">
      <path id="Path_20434" data-name="Path 20434" d="M372,14.194H364.2a2.1,2.1,0,0,0-2.1,2.1V50.785a2.1,2.1,0,0,0,2.1,2.1H372a2.1,2.1,0,0,0,2.1-2.1V16.292A2.1,2.1,0,0,0,372,14.194Z" transform="translate(-333.137)" fill="#898989"/>
      <path id="Path_20435" data-name="Path 20435" d="M364.579,50.785V16.292a2.1,2.1,0,0,1,2.1-2.1H364.2a2.1,2.1,0,0,0-2.1,2.1V50.785a2.1,2.1,0,0,0,2.1,2.1h2.473A2.1,2.1,0,0,1,364.579,50.785Z" transform="translate(-333.137)" fill="#777"/>
      <g id="Group_9744" data-name="Group 9744" transform="translate(0 20.793)">
        <path id="Path_20436" data-name="Path 20436" d="M390.759,104a4.292,4.292,0,1,1,0-6.069A4.3,4.3,0,0,1,390.759,104Zm-4.583-4.583a2.19,2.19,0,1,0,3.1,0A2.192,2.192,0,0,0,386.176,99.417Z" transform="translate(-352.759 -96.676)" fill="#898989"/>
        <path id="Path_20437" data-name="Path 20437" d="M23.371,164.669H5.6a5.615,5.615,0,0,1-5.6-5.6V141.3a5.615,5.615,0,0,1,5.6-5.6H23.371a5.615,5.615,0,0,1,5.6,5.6v17.773A5.615,5.615,0,0,1,23.371,164.669Z" transform="translate(0 -132.578)" fill="#efefef"/>
      </g>
      <path id="Path_20438" data-name="Path 20438" d="M4.945,159.071V141.3a5.615,5.615,0,0,1,5.6-5.6H5.6A5.615,5.615,0,0,0,0,141.3v17.773a5.615,5.615,0,0,0,5.6,5.6h4.945A5.615,5.615,0,0,1,4.945,159.071Z" transform="translate(0 -111.785)" fill="#ccc"/>
      <path id="Path_20442" data-name="Path 20442" d="M187.9,279.751c.256.248.812.164,1.076.18a.541.541,0,1,1,0,1.082,3.162,3.162,0,0,1-1.989-.445,1.758,1.758,0,0,1-.535-1.43v-6.021c0-.52,1.262-.547,1.262,0v2.2h1.466c.463,0,.464.937,0,.937h-1.466C187.766,278.979,187.593,279.452,187.9,279.751Z" transform="translate(-174.375 -238.524)" fill="#777"/>
      <path id="Path_20443" data-name="Path 20443" d="M227.674,304.16c-.132-.439.678-.773,1.046-.6.186.088.1.106,1.58,3.978l1.43-3.774c.181-.545,1.214-.083,1.214.288a.572.572,0,0,1-.048.2c-2.153,5.067-1.927,4.943-2.241,5.06-.288.107-.8.091-.931-.192C229.719,309.114,227.676,304.168,227.674,304.16Z" transform="translate(-212.163 -266.768)" fill="#777"/>
      <circle id="Ellipse_576" data-name="Ellipse 576" cx="1.362" cy="1.362" r="1.362" transform="translate(31.13 32.177)" fill="#535454"/>
      <path id="Path_20444" data-name="Path 20444" d="M390.481,240.349a1.36,1.36,0,0,1,0-1.361,1.362,1.362,0,1,0,1.178,2.041A1.361,1.361,0,0,1,390.481,240.349Z" transform="translate(-357.988 -206.81)" fill="#444443"/>
      <circle id="Ellipse_577" data-name="Ellipse 577" cx="1.362" cy="1.362" r="1.362" transform="translate(36.075 32.176)" fill="#535454"/>
      <path id="Path_20445" data-name="Path 20445" d="M452.295,240.349a1.36,1.36,0,0,1,0-1.361,1.362,1.362,0,1,0,1.178,2.041A1.361,1.361,0,0,1,452.295,240.349Z" transform="translate(-414.857 -206.81)" fill="#444443"/>
      <g id="Group_9746" data-name="Group 9746" transform="translate(30.057 20.173)">
        <path id="Path_20446" data-name="Path 20446" d="M384.089,90.373a4.908,4.908,0,0,0-8.38,3.471,4.9,4.9,0,0,0,4.908,4.907A4.914,4.914,0,0,0,384.089,90.373Zm-.475,5.594-.623-.623a2.812,2.812,0,0,0,0-3l.623-.623A3.681,3.681,0,0,1,383.614,95.967Zm-1.886-1.011a1.571,1.571,0,1,1,.46-1.111,1.573,1.573,0,0,1-.46,1.111Zm1.012-4.109-.624.624a2.816,2.816,0,0,0-3,0l-.624-.624A3.678,3.678,0,0,1,382.74,90.847Zm-5.12.874.624.624a2.813,2.813,0,0,0,0,3l-.623.624a3.68,3.68,0,0,1,0-4.246Zm.875,5.12.623-.623a2.813,2.813,0,0,0,3,0l.623.623A3.682,3.682,0,0,1,378.494,96.841Z" transform="translate(-375.709 -88.935)" fill="#535454"/>
        <path id="Path_20447" data-name="Path 20447" d="M403.983,438.559h-4.945a.618.618,0,0,1,0-1.236h4.945a.618.618,0,0,1,0,1.236Z" transform="translate(-396.603 -409.451)" fill="#535454"/>
      </g>
    </g>
  </g>
</svg>
