<svg xmlns="http://www.w3.org/2000/svg" width="72" height="72" viewBox="0 0 72 72">
  <g id="Group_40632" data-name="Group 40632" transform="translate(0.271 0.051)">
    <rect id="Rectangle_1537" data-name="Rectangle 1537" width="72" height="72" rx="20" transform="translate(-0.271 -0.051)" fill="none"/>
    <g id="_033-imac-2" data-name="033-imac-2" transform="translate(-9.718 17.141)">
      <path id="Path_20464" data-name="Path 20464" d="M93.482,453.516v1.476A1.015,1.015,0,0,1,92.47,456H69.691a.916.916,0,0,1-.913-.913v-1.576c-1.815,0-1.744,0-1.928-.006v2.005a2.422,2.422,0,0,0,2.414,2.415H93.022a2.422,2.422,0,0,0,2.415-2.415V453.51C95.3,453.518,93.49,453.516,93.482,453.516Z" transform="translate(-35.697 -419.24)" fill="#efefef"/>
      <path id="Path_20465" data-name="Path 20465" d="M68.78,455.516c-.006-1.324,0-.132,0-2-1.815,0-1.744,0-1.928-.006v2.005a2.422,2.422,0,0,0,2.415,2.414h1.931A2.422,2.422,0,0,1,68.78,455.516Z" transform="translate(-35.696 -419.241)" fill="#ddd"/>
      <path id="Path_20466" data-name="Path 20466" d="M59.556,34.542H31.336a3.11,3.11,0,0,1-3.1-3.1V3.221a3.11,3.11,0,0,1,3.1-3.1H59.556a3.11,3.11,0,0,1,3.1,3.1V31.441A3.111,3.111,0,0,1,59.556,34.542Z" transform="translate(0 -0.111)" fill="#377dff"/>
      <path id="Path_20467" data-name="Path 20467" d="M31.62,31.441V3.221a3.11,3.11,0,0,1,3.1-3.1H31.336a3.11,3.11,0,0,0-3.1,3.1V31.441a3.11,3.11,0,0,0,3.1,3.1h3.385A3.11,3.11,0,0,1,31.62,31.441Z" transform="translate(0 -0.111)" fill="#286be5"/>
      <path id="Path_20468" data-name="Path 20468" d="M59.556.12H31.336a3.11,3.11,0,0,0-3.1,3.1v24.5H62.657V3.221A3.11,3.11,0,0,0,59.556.12Z" transform="translate(0 -0.111)" fill="#efefef"/>
      <path id="Path_20469" data-name="Path 20469" d="M28.631,1.6a3.065,3.065,0,0,0-.4,1.51v24.5H31.62V3.11a3.11,3.11,0,0,1,3.1-3.1c-3.622.012-4.075-.147-5.071.5A4.417,4.417,0,0,0,28.631,1.6Z" transform="translate(0 0)" fill="#ddd"/>
      <path id="Path_20470" data-name="Path 20470" d="M99.924,46.512H73.784a.756.756,0,0,0-.756.756V66.354a.756.756,0,0,0,.756.756h26.14a.756.756,0,0,0,.756-.756V47.268A.756.756,0,0,0,99.924,46.512Z" transform="translate(-41.408 -42.997)" fill="#898989"/>
      <path id="Path_20471" data-name="Path 20471" d="M75.364,66.353V47.267a.756.756,0,0,1,.756-.756H73.785a.756.756,0,0,0-.756.756V66.353a.756.756,0,0,0,.756.756H76.12A.756.756,0,0,1,75.364,66.353Z" transform="translate(-41.409 -42.996)" fill="#777"/>
      <path id="Path_20472" data-name="Path 20472" d="M100.681,47.267v1.452H73.029V47.267a.756.756,0,0,1,.756-.756h26.14A.756.756,0,0,1,100.681,47.267Z" transform="translate(-41.409 -42.996)" fill="#666"/>
      <path id="Path_20473" data-name="Path 20473" d="M75.363,47.267a.756.756,0,0,1,.756-.756H73.784a.758.758,0,0,0-.756.756v1.452h2.335V47.267Z" transform="translate(-41.408 -42.996)" fill="#535454"/>
      <path id="Path_20474" data-name="Path 20474" d="M186.837,367.371H176.621a.963.963,0,0,1-.963-.963h0a.963.963,0,0,1,.963-.963h10.217a.963.963,0,0,1,.963.963h0A.963.963,0,0,1,186.837,367.371Z" transform="translate(-136.283 -337.831)" fill="#82acfb"/>
      <path id="Path_20475" data-name="Path 20475" d="M177.994,366.41h0a.963.963,0,0,1,.963-.963h-2.335a.963.963,0,0,0-.963.963h0a.963.963,0,0,0,.963.963h2.335A.963.963,0,0,1,177.994,366.41Z" transform="translate(-136.284 -337.832)" fill="#5d96ff"/>
      <circle id="Ellipse_578" data-name="Ellipse 578" cx="1.697" cy="1.697" r="1.697" transform="translate(30.197 29.194)" fill="#82acfb"/>
      <path id="Path_20476" data-name="Path 20476" d="M55.886,386.341a1.7,1.7,0,1,0,1.469,2.544A1.7,1.7,0,0,1,55.886,386.341Z" transform="translate(-23.993 -357.147)" fill="#5d96ff"/>
      <g id="Group_9748" data-name="Group 9748" transform="translate(35.006 30.306)">
        <path id="Path_20477" data-name="Path 20477" d="M376.327,402.222a.583.583,0,0,1-.21-.087.571.571,0,0,1-.162-.161.6.6,0,0,1-.086-.21.561.561,0,0,1,0-.228.607.607,0,0,1,.086-.21.588.588,0,0,1,.262-.215.619.619,0,0,1,.11-.034.6.6,0,0,1,.228,0,.608.608,0,0,1,.109.034.591.591,0,0,1,.1.054.575.575,0,0,1,.089.072.612.612,0,0,1,.073.089.63.63,0,0,1,.054.1.585.585,0,0,1-.425.8A.562.562,0,0,1,376.327,402.222Z" transform="translate(-356.36 -401.066)" fill="#666"/>
        <path id="Path_20478" data-name="Path 20478" d="M118.2,402.187a.583.583,0,0,1-.36-.539.571.571,0,0,1,.012-.114.534.534,0,0,1,.033-.109.575.575,0,0,1,.054-.1.562.562,0,0,1,.072-.089.572.572,0,0,1,.089-.072.584.584,0,0,1,.1-.054.576.576,0,0,1,.447,0,.584.584,0,0,1-.109,1.111A.7.7,0,0,1,118.2,402.187Z" transform="translate(-117.842 -401.065)" fill="#666"/>
        <path id="Path_20479" data-name="Path 20479" d="M142.938,402.186a.583.583,0,1,1,.338.033A.836.836,0,0,1,142.938,402.186Z" transform="translate(-140.71 -401.063)" fill="#666"/>
      </g>
      <path id="Path_20480" data-name="Path 20480" d="M233.339,335.422h-2.763a.584.584,0,0,1,0-1.168h2.763a.584.584,0,0,1,0,1.168Z" transform="translate(-186.511 -308.996)" fill="#ccc"/>
      <path id="Path_20481" data-name="Path 20481" d="M162.244,270.413H146.119a.261.261,0,0,0-.26.26v1.562a.261.261,0,0,0,.26.26h16.125a.261.261,0,0,0,.26-.26v-1.562A.261.261,0,0,0,162.244,270.413Z" transform="translate(-108.736 -249.979)" fill="#efefef"/>
      <path id="Path_20482" data-name="Path 20482" d="M148.193,272.235v-1.562a.261.261,0,0,1,.26-.26h-2.335a.261.261,0,0,0-.26.26v1.562a.261.261,0,0,0,.26.26h2.335A.261.261,0,0,1,148.193,272.235Z" transform="translate(-108.735 -249.979)" fill="#ddd"/>
      <circle id="Ellipse_579" data-name="Ellipse 579" cx="1.697" cy="1.697" r="1.697" transform="translate(57.302 29.194)" fill="#82acfb"/>
      <path id="Path_20483" data-name="Path 20483" d="M414.569,386.341a1.7,1.7,0,1,0,1.469,2.544A1.7,1.7,0,0,1,414.569,386.341Z" transform="translate(-355.57 -357.147)" fill="#5d96ff"/>
    </g>
  </g>
</svg>
